<?xml version="1.0" encoding="UTF-8"?>
<!DOCTYPE svg PUBLIC "-//W3C//DTD SVG 1.1//EN" "http://www.w3.org/Graphics/SVG/1.1/DTD/svg11.dtd">
<svg xmlns="http://www.w3.org/2000/svg" version="1.1" width="732px" height="742px" style="shape-rendering:geometricPrecision; text-rendering:geometricPrecision; image-rendering:optimizeQuality; fill-rule:evenodd; clip-rule:evenodd" xmlns:xlink="http://www.w3.org/1999/xlink">
<g><path style="opacity:0.99" fill="#282f5a" d="M 512.5,-0.5 C 519.167,-0.5 525.833,-0.5 532.5,-0.5C 554.675,5.25465 574.341,15.7546 591.5,31C 637.197,75.032 683.197,118.699 729.5,162C 730.094,162.464 730.761,162.631 731.5,162.5C 731.5,163.167 731.5,163.833 731.5,164.5C 720.306,182.548 706.973,199.048 691.5,214C 658.096,241.925 622.429,244.925 584.5,223C 577.833,218.333 571.167,213.667 564.5,209C 552.5,197.667 540.5,186.333 528.5,175C 496.361,141.861 463.861,109.028 431,76.5C 428.777,73.2208 426.943,69.7208 425.5,66C 441.941,44.557 461.275,26.2237 483.5,11C 492.631,5.46387 502.297,1.63053 512.5,-0.5 Z"/></g>
<g><path style="opacity:0.992" fill="#282f5a" d="M 288.5,16.5 C 324.332,14.945 356.666,24.7784 385.5,46C 396.602,54.2668 406.935,63.4335 416.5,73.5C 348.345,138.821 280.011,203.988 211.5,269C 279.5,334.333 347.5,399.667 415.5,465C 396.088,489.872 371.754,508.205 342.5,520C 302.285,533.52 265.619,527.187 232.5,501C 204.363,474.531 176.53,447.697 149,420.5C 100.198,368.697 51.0315,317.197 1.5,266C 43.8611,223.972 85.8611,181.639 127.5,139C 161.197,106.302 195.197,73.9682 229.5,42C 246.998,28.339 266.665,19.839 288.5,16.5 Z"/></g>
<g><path style="opacity:0.992" fill="#282f5a" d="M 423.5,215.5 C 456.716,215.401 485.716,226.234 510.5,248C 583.749,318.248 656.083,389.581 727.5,462C 680.333,512.5 633.167,563 586,613.5C 555.443,644.725 524.276,675.225 492.5,705C 464.122,727.808 432.456,733.808 397.5,723C 366.009,711.595 339.342,693.262 317.5,668C 385.981,601.687 454.981,535.854 524.5,470.5C 455.833,404.833 387.167,339.167 318.5,273.5C 345.568,239.799 380.568,220.466 423.5,215.5 Z"/></g>
<g><path style="opacity:0.99" fill="#282f5a" d="M 222.5,741.5 C 215.5,741.5 208.5,741.5 201.5,741.5C 177.792,735.979 156.792,725.146 138.5,709C 91.9944,664.661 45.6611,620.161 -0.5,575.5C -0.5,574.833 -0.5,574.167 -0.5,573.5C 16.7196,550.781 37.0529,531.281 60.5,515C 87.7923,499.724 115.126,499.724 142.5,515C 159.651,526.144 175.651,538.81 190.5,553C 226.972,590.472 263.805,627.639 301,664.5C 302.753,667.005 304.253,669.671 305.5,672.5C 294.621,690.559 281.288,706.726 265.5,721C 252.907,731.631 238.574,738.464 222.5,741.5 Z"/></g>
</svg>
